<svg xmlns="http://www.w3.org/2000/svg" viewBox="0 0 512 512">
  <defs>
    <radialGradient id="bgGlow" cx="50%" cy="38%" r="75%">
      <stop offset="0%" stop-color="#3b0070"/>
      <stop offset="55%" stop-color="#220040"/>
      <stop offset="100%" stop-color="#150028"/>
    </radialGradient>
    <radialGradient id="yellowGlow" cx="50%" cy="20%" r="40%">
      <stop offset="0%" stop-color="#facc15" stop-opacity="0.25"/>
      <stop offset="100%" stop-color="#facc15" stop-opacity="0"/>
    </radialGradient>
  </defs>

  <!-- Background -->
  <rect width="512" height="512" fill="url(#bgGlow)"/>
  <rect width="512" height="512" fill="url(#yellowGlow)"/>

  <!-- Owl mark, scaled from original favicon/logo (viewBox 0 0 80 80 -> centered, scale 5.2, translate) -->
  <g transform="translate(76.8,76.8) scale(4.8)">
    <circle cx="40" cy="40" r="38" fill="none" stroke="#9333ea" stroke-width="1.2" opacity="0.5"/>
    <ellipse cx="40" cy="44" rx="24" ry="20" fill="#c084fc"/>
    <ellipse cx="40" cy="52" rx="12" ry="8" fill="#e9d5ff"/>
    <ellipse cx="17" cy="30" rx="5" ry="9" fill="#c084fc" transform="rotate(-15 17 30)"/>
    <ellipse cx="63" cy="30" rx="5" ry="9" fill="#c084fc" transform="rotate(15 63 30)"/>
    <ellipse cx="17" cy="30" rx="3" ry="6" fill="#e9d5ff" opacity="0.5" transform="rotate(-15 17 30)"/>
    <ellipse cx="63" cy="30" rx="3" ry="6" fill="#e9d5ff" opacity="0.5" transform="rotate(15 63 30)"/>
    <circle cx="30" cy="38" r="7" fill="#150028"/>
    <circle cx="50" cy="38" r="7" fill="#150028"/>
    <circle cx="31" cy="37" r="3.5" fill="#facc15"/>
    <circle cx="51" cy="37" r="3.5" fill="#facc15"/>
    <circle cx="31.8" cy="36.2" r="1.2" fill="white" opacity="0.9"/>
    <circle cx="51.8" cy="36.2" r="1.2" fill="white" opacity="0.9"/>
    <ellipse cx="37" cy="50" rx="2" ry="1.5" fill="#9333ea" opacity="0.7"/>
    <ellipse cx="43" cy="50" rx="2" ry="1.5" fill="#9333ea" opacity="0.7"/>
    <path d="M34 56 Q40 62 46 56" stroke="#9333ea" stroke-width="2" fill="none" stroke-linecap="round"/>
    <circle cx="40" cy="16" r="3" fill="#facc15" opacity="0.9"/>
    <circle cx="32" cy="18" r="2" fill="#facc15" opacity="0.6"/>
    <circle cx="48" cy="18" r="2" fill="#facc15" opacity="0.6"/>
  </g>
</svg>
